<svg xmlns="http://www.w3.org/2000/svg" width="88" height="16" fill="none" xmlns:v="https://vecta.io/nano"><path opacity=".3" d="M88 6.182L82.186 5.8 79.997.299 77.807 5.8 72 6.182l4.454 3.782-1.462 5.737 5.004-3.163L85 15.701l-1.462-5.737L88 6.182zm-18 0L64.186 5.8 61.997.299 59.807 5.8 54 6.182l4.454 3.782-1.462 5.737 5.004-3.163L67 15.701l-1.462-5.737L70 6.182z" fill="#c4c4c4"/><path d="M52 6.182L46.186 5.8 43.997.299 41.807 5.8 36 6.182l4.454 3.782-1.462 5.737 5.004-3.163L49 15.701l-1.462-5.737L52 6.182zm-18 0L28.186 5.8 25.997.299 23.807 5.8 18 6.182l4.454 3.782-1.462 5.737 5.004-3.163L31 15.701l-1.462-5.737L34 6.182zm-18 0L10.186 5.8 7.997.299 5.807 5.8 0 6.182l4.454 3.782-1.462 5.737 5.004-3.163L13 15.701l-1.462-5.737L16 6.182z" fill="#dc780b"/></svg>