<svg xmlns="http://www.w3.org/2000/svg" width="26" height="26" fill="none" xmlns:v="https://vecta.io/nano"><g clip-path="url(#A)"><path d="M16.872 4.12c.828-1.001 1.41-2.36 1.381-3.745-.005-.233-.217-.405-.447-.37-1.215.186-2.573.947-3.414 1.931-.775.896-1.463 2.288-1.411 3.668.008.208.183.374.391.368 1.341-.038 2.665-.841 3.5-1.851z" fill="#d6d6d8"/><path d="M14.027 5.603C13.947 3.464 15.561.966 18.18.161a.39.39 0 0 0-.374-.156c-1.215.186-2.573.947-3.414 1.931-.775.896-1.463 2.288-1.411 3.668.008.208.184.374.391.368.26-.007.519-.044.775-.105a.38.38 0 0 1-.12-.263z" fill="#c2c2c4"/><path d="M23.344 18.926c-.842-.424-3.165-1.887-3.194-5.131-.025-2.655 1.737-4.2 2.487-4.739.178-.128.217-.379.082-.551-.623-.794-1.351-1.303-2.051-1.633l-.369-.16c-3.52-1.386-5.738.738-7.082.738-1.029 0-2.616-1.163-4.299-1.131-2.21.032-4.246 1.286-5.386 3.264-1.749 3.035-1.172 7.185.19 10.419l.137.316c.395.886.847 1.696 1.323 2.385 1.093 1.58 2.397 3.36 4.111 3.295 1.649-.065 2.273-1.066 4.266-1.066s2.554 1.066 4.298 1.035c1.775-.034 2.899-1.612 3.985-3.2.956-1.395 1.483-2.757 1.694-3.37.063-.183-.018-.384-.191-.47z" fill="#d6d6d8"/><path d="M6.229 22.704a14.85 14.85 0 0 1-1.323-2.385l-.137-.315c-1.354-3.214-1.945-7.373-.19-10.419 1.053-1.827 2.87-3.035 4.883-3.235-.179-.022-.36-.033-.543-.029-2.21.032-4.246 1.286-5.386 3.264-1.749 3.035-1.172 7.185.19 10.419l.137.316a14.87 14.87 0 0 0 1.323 2.385c1.093 1.58 2.397 3.36 4.111 3.295a3.95 3.95 0 0 0 .476-.048c-1.438-.292-2.572-1.847-3.54-3.247z" fill="#c2c2c4"/></g><defs><clipPath id="A"><path fill="#fff" d="M0 0h26v26H0z"/></clipPath></defs></svg>