<svg xmlns="http://www.w3.org/2000/svg" width="43" height="43" fill="none" xmlns:v="https://vecta.io/nano"><path d="M18.981 0c-2.084 0-3.779 1.695-3.779 3.779v1.344l2.52 1.26h1.26 1.26l2.52-1.26V3.779C22.76 1.695 21.065 0 18.981 0z" fill="#ff6a4d"/><path d="M22.76 5.123V3.779C22.76 1.695 21.065 0 18.981 0v6.383h1.26l2.52-1.26z" fill="#e64d2e"/><path d="M0 37.961C.584 40.836 3.252 43 6.299 43s5.799-2.164 6.383-5.039l-2.737-1.26H1.749L0 37.961z" fill="#474f54"/><path d="M6.299 40.481c-2.084 0-3.779-1.695-3.779-3.779s1.695-3.779 3.779-3.779 3.863 1.695 3.863 3.779-1.779 3.779-3.863 3.779z" fill="#f2f9ff"/><path d="M12.682 15.285H5.039l-2.52 2.52v7.559l2.52 1.26h7.643l3.779-1.26v-6.803l-1.26-.756-2.52-2.52z" fill="#dc780b"/><path d="M2.52 12.766v5.039h12.682l1.26-.652-1.26-.608v-3.779H2.52z" fill="#fabe2c"/><path d="M20.24 37.961H0v-1.26c0-4.87 4.032-8.818 8.902-8.818l2.1-1.26H22.76v9.238l-2.52 2.1z" fill="#ff6a4d"/><path d="M0 25.363h17.721v2.52H0v-2.52z" fill="#32393f"/><path d="M26.539 31.738v4.737l-1.26 1.487H20.24V27.883h-2.52a2.53 2.53 0 0 1-2.52-2.52v-6.299h7.559v3.779a2.53 2.53 0 0 1 2.52 2.519v5.039l1.26 1.335z" fill="#575f64"/><path d="M26.539 31.738v4.737l-1.26 1.487H20.24V27.883h-1.26v-8.818h3.779v3.779a2.53 2.53 0 0 1 2.52 2.519v5.039l1.26 1.335z" fill="#474f54"/><path d="M22.76 17.805v-1.26c0-2.084-1.695-3.779-3.779-3.779s-3.779 1.695-3.779 3.779v2.52a3.78 3.78 0 0 0 3.779 3.779h10.162a3.78 3.78 0 0 0 3.779-3.779v-1.26H22.76z" fill="#ff6a4d"/><path d="M32.922 19.065v-1.26H22.76v-1.26c0-2.084-1.695-3.779-3.779-3.779v10.078h10.162a3.78 3.78 0 0 0 3.779-3.779z" fill="#e64d2e"/><path d="M20.24 6.383h-1.26-1.26l-2.52 1.26v1.26c0 2.084 1.695 3.863 3.779 3.863s3.779-1.779 3.779-3.863v-1.26l-2.52-1.26z" fill="#ffe1ba"/><path d="M22.76 8.902v-1.26l-2.52-1.26h-1.26v6.383c2.084 0 3.779-1.779 3.779-3.863z" fill="#ffbfab"/><path d="M18.981 5.123h-3.779v2.52h3.779 6.299v-2.52h-6.299z" fill="#474f54"/><path d="M18.981 5.123h6.299v2.52h-6.299v-2.52z" fill="#32393f"/><path d="M36.394 25.645l-.965-6.759-5.027-2.341v10.078c0 1.987-1.712 3.779-3.863 3.779h-1.26v7.559h2.52 12.682l2.52-1.26v-2.52a8.87 8.87 0 0 0-6.606-8.537z" fill="#e64d2e"/><path d="M37.961 20.324h-3.779c-2.084 0-3.779-1.695-3.779-3.779s1.695-3.779 3.779-3.779h3.779v7.559z" fill="#ff6a4d"/><path d="M37.08 30.441l-.366 1.4-2.129-1.046c-2.43.874-4.182 3.18-4.182 5.907A6.31 6.31 0 0 0 36.701 43 6.31 6.31 0 0 0 43 36.701c0-3.343-2.626-6.06-5.92-6.26z" fill="#32393f"/><path d="M36.701 32.922c-2.084 0-3.779 1.695-3.779 3.779s1.695 3.779 3.779 3.779 3.779-1.695 3.779-3.779-1.695-3.779-3.779-3.779z" fill="#dfe7f4"/><path d="M37.949 36.523l-.869-6.082c-.128-.008-.249-.038-.379-.038-.746 0-1.452.153-2.117.392l.869 6.085 2.495-.357z" fill="#c7cfe1"/></svg>