<svg xmlns="http://www.w3.org/2000/svg" width="21" height="21" fill="none" xmlns:v="https://vecta.io/nano"><path d="M21 10.5C21 16.299 16.299 21 10.5 21S0 16.299 0 10.5 4.701 0 10.5 0 21 4.701 21 10.5z" fill="#4a7aff"/><path d="M10.961 20.989A10.5 10.5 0 0 0 21 10.5l-.002-.122-7.288-7.289-7.793 8.145 4.33 4.33-1.997 2.715 2.71 2.71z" fill="#0053bf"/><path d="M13.71 3.089v2.378s-2.73-.396-2.73 1.365v1.761h2.466l-.308 2.686H10.98v7.001H8.25v-7.001l-2.334-.044V8.593h2.29V6.567s-.151-3.013 2.818-3.566c1.233-.23 2.686.088 2.686.088z" fill="#fff"/><path d="M13.71 5.467V3.089s-1.453-.318-2.686-.088a4.16 4.16 0 0 0-.539.137v15.141h.495v-7.001h2.157l.308-2.686H10.98V6.831c0-1.761 2.73-1.365 2.73-1.365z" fill="#dce1eb"/></svg>