<svg xmlns="http://www.w3.org/2000/svg" width="26" height="26" fill="none" xmlns:v="https://vecta.io/nano"><g clip-path="url(#A)"><path d="M18.425 13L2.411.578A2.65 2.65 0 0 0 1.385 2.69v20.62a2.65 2.65 0 0 0 1.026 2.112L18.425 13z" fill="#9dc6fb"/><path d="M23.272 10.674l-3.875-2.237-3.396.425L14.834 13l.592 3.962 3.97.6 3.875-2.236a2.69 2.69 0 0 0 0-4.652z" fill="#ffe07d"/><path d="M19.397 8.437L5.414.364a2.67 2.67 0 0 0-3.003.214L14.834 13l4.563-4.563z" fill="#dd5790"/><path d="M19.397 17.563L14.834 13 2.411 25.422a2.67 2.67 0 0 0 3.003.214l13.983-8.073z" fill="#95d6a4"/><path d="M4.412 2.69c0-.18.017-.355.049-.522L2.411.578A2.65 2.65 0 0 0 1.385 2.69v20.62a2.65 2.65 0 0 0 1.026 2.112l2.05-1.59a2.74 2.74 0 0 1-.049-.522V2.69z" fill="#80b4fb"/><path d="M5.592.466L5.414.364C4.393-.225 3.225-.059 2.411.578l2.003 2.003A2.65 2.65 0 0 1 5.438.578h0l.153-.111z" fill="#da387d"/><path d="M5.439 25.422v-.001l-.001.001a2.65 2.65 0 0 1-1.024-2.003l-2.003 2.003a2.67 2.67 0 0 0 3.003.214l.178-.103-.153-.111z" fill="#78c2a4"/></g><defs><clipPath id="A"><path fill="#fff" transform="matrix(1 0 0 -1 0 26)" d="M0 0h26v26H0z"/></clipPath></defs></svg>