<svg xmlns="http://www.w3.org/2000/svg" xmlns:xlink="http://www.w3.org/1999/xlink" width="45" height="45" fill="none" xmlns:v="https://vecta.io/nano"><path d="M3.943 6.136c-.423-.874-.057-1.924.816-2.347.285-.138.589-.191.884-.17a2.98 2.98 0 0 1 1.424-1.464 2.99 2.99 0 0 1 3.996 1.39 2.98 2.98 0 0 1 .293 1.112 1.73 1.73 0 0 1 .813 3.289 1.73 1.73 0 0 1-2.182-.582c-.1.064-.204.123-.314.177-1.176.569-2.54.298-3.415-.575-.867.399-1.897.033-2.315-.83z" fill="url(#A)"/><path d="M4.384 2.937a1.47 1.47 0 0 0 1.468-1.468A1.47 1.47 0 0 0 4.384 0a1.47 1.47 0 0 0-1.468 1.468 1.47 1.47 0 0 0 1.468 1.468z" fill="url(#B)"/><path d="M13.108 14.778H9.566a.91.91 0 0 1-.907-.908V8.222a.91.91 0 0 1 .907-.907h3.541a.91.91 0 0 1 .907.907v5.649a.91.91 0 0 1-.907.908z" fill="url(#C)"/><path d="M11.986 30.885H1.41v13.572h10.575V30.885z" fill="url(#D)"/><path d="M12.426 33.793H1.434a.67.67 0 0 1-.642-.866l1.091-3.593a.67.67 0 0 1 .642-.476h9.902v4.935h0z" fill="url(#E)"/><path d="M43.536 30.885H32.96v13.572h10.575V30.885z" fill="url(#F)"/><path d="M43.535 40.901l-7.105-7.106h-3.47v10.661h10.575v-3.555z" fill="url(#G)"/><path d="M32.519 33.793h10.992a.67.67 0 0 0 .642-.866l-1.091-3.593a.67.67 0 0 0-.642-.476h-9.902v4.935z" fill="url(#H)"/><path d="M36.436 16.377v28.079H8.513V16.377L22.473 2.69l13.963 13.686z" fill="url(#I)"/><path d="M8.513 16.377v1.609l26.471 26.471h1.452V16.377L22.473 2.69 8.513 16.377z" fill="url(#J)"/><path d="M36.436 24.863v19.594H27.62L8.513 25.349v-.486h27.923z" fill="url(#K)"/><path d="M32.121 44.456H18.465l-7.507-7.507a1.2 1.2 0 0 1-.55-1.008V29.9c0-.662.539-1.201 1.201-1.201h4.356a1.2 1.2 0 0 1 1.009.55l-.033.026 15.181 15.181z" fill="url(#L)"/><use xlink:href="#U" fill="#503837"/><path d="M15.965 37.143h-4.355c-.662 0-1.201-.539-1.201-1.201v-6.041c0-.662.539-1.201 1.201-1.201h4.355c.662 0 1.201.539 1.201 1.201v6.041c0 .662-.539 1.201-1.201 1.201zm-4.149-1.408h3.942v-5.628h-3.942v5.628z" fill="#fff"/><path d="M36.437 31.191v13.265h-.428l-7.507-7.507a1.2 1.2 0 0 1-.552-1.008V29.9c0-.662.539-1.201 1.202-1.201h4.355a1.2 1.2 0 0 1 1.009.55l.017.014-.012.012 1.916 1.916z" fill="url(#M)"/><use xlink:href="#U" x="17.542" fill="#503837"/><path d="M33.507 37.143h-4.355c-.662 0-1.201-.539-1.201-1.201v-6.041c0-.662.539-1.201 1.201-1.201h4.355c.662 0 1.201.539 1.201 1.201v6.041c0 .662-.539 1.201-1.201 1.201zm-4.149-1.408H33.3v-5.628h-3.942v5.628z" fill="#fff"/><path d="M19.565 44.456V29.202a1.22 1.22 0 0 1 1.218-1.218h3.383a1.22 1.22 0 0 1 1.218 1.218v15.254h-5.819z" fill="#816965"/><path d="M26.105 44.456h-1.441V29.617c0-.502-.411-.913-.913-.913h-2.552c-.504 0-.913.409-.913.913v14.839h-1.441V28.664a1.4 1.4 0 0 1 1.401-1.401h4.458a1.4 1.4 0 0 1 1.401 1.401v15.792h0z" fill="#503837"/><path d="M21.443 34.366c.363 0 .657-.294.657-.657s-.294-.657-.657-.657-.657.294-.657.657.294.657.657.657z" fill="#fff"/><path d="M36.437 40.612H8.512v3.844h27.924v-3.844z" fill="#654e48"/><path d="M8.207 42.954c0 .531-.1 1.037-.284 1.502H.284C.1 43.991 0 43.484 0 42.954c0-.517.095-1.011.27-1.465.59-1.543 2.084-2.638 3.834-2.638s3.244 1.095 3.834 2.638c.174.455.269.949.269 1.465z" fill="url(#N)"/><path d="M10.853 43.367c0 .385-.073.752-.206 1.09H5.105c-.133-.337-.206-.705-.206-1.09a2.96 2.96 0 0 1 .196-1.063c.428-1.119 1.512-1.914 2.781-1.914s2.353.794 2.781 1.914c.126.33.195.688.195 1.063z" fill="url(#O)"/><path d="M44.946 42.705c0 .618-.117 1.209-.331 1.751H35.71a4.77 4.77 0 0 1-.331-1.751 4.76 4.76 0 0 1 .314-1.708c.688-1.799 2.429-3.075 4.469-3.075s3.781 1.276 4.469 3.075a4.76 4.76 0 0 1 .314 1.708z" fill="url(#P)"/><path d="M36.436 20.394v14.882L18.474 17.314a1.21 1.21 0 0 1-.59-1.038v-3.375c0-2.529 2.059-4.587 4.588-4.587a4.58 4.58 0 0 1 3.442 1.559l10.521 10.521z" fill="url(#Q)"/><path d="M34.389 18.946H10.918c-.56 0-1.015.455-1.015 1.015v4.506h.705v-4.506a.31.31 0 0 1 .31-.31h1.404v4.816h.705v-4.816h2.094v4.816h.705v-4.816h2.095v4.816h.705v-4.816h2.094v4.816h.705v-4.816h2.095v4.816h.705v-4.816h2.095v4.816h.705v-4.816h2.094v4.816h.705v-4.816h2.095v4.816h.705v-4.816h1.766a.31.31 0 0 1 .31.31v4.506h.705v-4.506c0-.56-.455-1.015-1.015-1.015z" fill="#654e48"/><path d="M37.015 23.736v2.26a.61.61 0 0 1-.608.608H8.539a.61.61 0 0 1-.608-.608v-2.26a.61.61 0 0 1 .608-.608h27.867a.61.61 0 0 1 .608.608z" fill="url(#R)"/><path d="M41.435 18.825L23.406.789c-.514-.514-1.347-.514-1.861 0L3.51 18.823a.86.86 0 0 0 0 1.218l.769.768a.86.86 0 0 0 1.217 0L22.23 4.076c.135-.135.355-.135.49 0l16.729 16.735a.86.86 0 0 0 1.218 0l.768-.768a.86.86 0 0 0 0-1.217z" fill="url(#S)"/><path d="M23.406.789a1.31 1.31 0 0 0-.93-.385v3.571c.089 0 .177.034.245.101l16.729 16.735a.86.86 0 0 0 1.218 0l.769-.769a.86.86 0 0 0 0-1.218L23.406.789z" fill="url(#T)"/><path d="M25.847 16.757h-6.748a.48.48 0 0 1-.482-.482v-3.374c0-2.129 1.726-3.856 3.855-3.856s3.856 1.726 3.856 3.856v3.374a.48.48 0 0 1-.482.482z" fill="#654e48"/><path d="M22.473 8.314c-2.53 0-4.587 2.058-4.587 4.587v3.374c0 .669.544 1.214 1.214 1.214h6.748c.669 0 1.214-.544 1.214-1.214v-3.374c0-2.53-2.058-4.587-4.588-4.587zm3.098 4.197h-2.366V9.865a3.13 3.13 0 0 1 2.366 2.646zm-3.83-2.646v2.646h-2.366a3.13 3.13 0 0 1 2.366-2.646zm-2.391 4.11h2.391v2.05h-2.391v-2.05zm3.856 2.05v-2.05h2.391v2.05h-2.391z" fill="#fff"/><defs><linearGradient id="A" x1="2.245" y1="2.82" x2="19.536" y2="8.836" xlink:href="#V"><stop stop-color="#e2edf2"/><stop offset="1" stop-color="#9fc7e2"/></linearGradient><linearGradient id="B" x1="3.908" y1="1.304" x2="6.454" y2="2.19" xlink:href="#V"><stop stop-color="#e2edf2"/><stop offset="1" stop-color="#9fc7e2"/></linearGradient><linearGradient id="C" x1="9.902" y1="9.613" x2="11.679" y2="11.389" xlink:href="#V"><stop stop-color="#816965"/><stop offset="1" stop-color="#654e48"/></linearGradient><linearGradient id="D" x1="6.698" y1="32.605" x2="6.698" y2="44.657" xlink:href="#V"><stop stop-color="#ffe7a5"/><stop offset=".966" stop-color="#ffbf5c"/></linearGradient><linearGradient id="E" x1="6.594" y1="29.483" x2="6.594" y2="33.867" xlink:href="#V"><stop stop-color="#ff5d00"/><stop offset="1" stop-color="#d54003"/></linearGradient><linearGradient id="F" x1="38.247" y1="32.605" x2="38.247" y2="44.657" xlink:href="#V"><stop stop-color="#ffe7a5"/><stop offset=".966" stop-color="#ffbf5c"/></linearGradient><linearGradient id="G" x1="38" y1="42.072" x2="27.038" y2="32.303" xlink:href="#V"><stop stop-color="#ff5d00" stop-opacity="0"/><stop offset="1" stop-color="#d54003"/></linearGradient><linearGradient id="H" x1="38.351" y1="29.483" x2="38.351" y2="33.867" xlink:href="#V"><stop stop-color="#ff5d00"/><stop offset="1" stop-color="#d54003"/></linearGradient><linearGradient id="I" x1="22.474" y1="23.863" x2="22.474" y2="53.429" xlink:href="#V"><stop stop-color="#ffe7a5"/><stop offset=".966" stop-color="#ffbf5c"/><stop offset="1" stop-color="#db9e36"/></linearGradient><linearGradient id="J" x1="19.457" y1="14.164" x2="11.374" y2="6.081" xlink:href="#V"><stop stop-color="#ff5d00" stop-opacity="0"/><stop offset="1" stop-color="#d54003"/></linearGradient><linearGradient id="K" x1="23.525" y1="31.631" x2="20.362" y2="11.999" xlink:href="#V"><stop stop-color="#ff5d00" stop-opacity="0"/><stop offset="1" stop-color="#d54003"/></linearGradient><linearGradient id="L" x1="19.227" y1="38.361" x2="6.63" y2="25.764" xlink:href="#V"><stop stop-color="#ff5d00" stop-opacity="0"/><stop offset="1" stop-color="#d54003"/></linearGradient><linearGradient id="M" x1="34.699" y1="36.292" x2="26.634" y2="28.226" xlink:href="#V"><stop stop-color="#ff5d00" stop-opacity="0"/><stop offset="1" stop-color="#d54003"/></linearGradient><linearGradient id="N" x1="1.789" y1="40.4" x2="6.853" y2="45.462" xlink:href="#V"><stop stop-color="#9eb644"/><stop offset="1" stop-color="#738611"/></linearGradient><linearGradient id="O" x1="6.197" y1="41.513" x2="9.87" y2="45.186" xlink:href="#V"><stop stop-color="#9eb644"/><stop offset="1" stop-color="#738611"/></linearGradient><linearGradient id="P" x1="37.464" y1="39.727" x2="43.366" y2="45.63" xlink:href="#V"><stop stop-color="#9eb644"/><stop offset="1" stop-color="#738611"/></linearGradient><linearGradient id="Q" x1="28.888" y1="20.307" x2="15.975" y2="7.393" xlink:href="#V"><stop stop-color="#ff5d00" stop-opacity="0"/><stop offset="1" stop-color="#d54003"/></linearGradient><linearGradient id="R" x1="22.472" y1="23.498" x2="22.472" y2="28.11" xlink:href="#V"><stop stop-color="#ff5d00"/><stop offset="1" stop-color="#d54003"/></linearGradient><linearGradient id="S" x1="22.472" y1="12.603" x2="22.472" y2="28.263" xlink:href="#V"><stop stop-color="#ff5d00"/><stop offset="1" stop-color="#d54003"/></linearGradient><linearGradient id="T" x1="35.941" y1="15.384" x2="26.476" y2="5.919" xlink:href="#V"><stop stop-color="#ff5d00" stop-opacity="0"/><stop offset="1" stop-color="#d54003"/></linearGradient><path id="U" d="M15.965 36.439h-4.355c-.275 0-.497-.223-.497-.497v-6.041c0-.275.223-.497.497-.497h4.355c.275 0 .497.223.497.497v6.041c0 .275-.223.497-.497.497z"/><linearGradient id="V" gradientUnits="userSpaceOnUse"/></defs></svg>