<svg xmlns="http://www.w3.org/2000/svg" width="21" height="21" fill="none" xmlns:v="https://vecta.io/nano"><path d="M10.5 21C16.299 21 21 16.299 21 10.5S16.299 0 10.5 0 0 4.701 0 10.5 4.701 21 10.5 21z" fill="#6c27b3"/><path d="M15.369 5.452c-1.255.159-2.563.153-3.879.028-1.838-.141-4.525-.99-5.515.707-1.59 2.717-.806 6.195-.435 9.273l5.526 5.525c5.348-.284 9.634-4.569 9.919-9.917l-5.616-5.616z" fill="#501a96"/><path d="M12.929 4.49H8.071c-1.974 0-3.581 1.606-3.581 3.581v4.858c0 1.974 1.606 3.581 3.581 3.581h4.859c1.974 0 3.581-1.606 3.581-3.581V8.071c0-1.974-1.606-3.581-3.581-3.581zm2.372 8.439a2.37 2.37 0 0 1-2.372 2.372H8.071a2.37 2.37 0 0 1-2.372-2.372V8.071a2.37 2.37 0 0 1 2.372-2.372h4.859a2.37 2.37 0 0 1 2.372 2.372v4.859zM10.5 7.391c-1.714 0-3.109 1.395-3.109 3.109s1.395 3.109 3.109 3.109 3.109-1.395 3.109-3.109-1.395-3.109-3.109-3.109zm0 5.008a1.9 1.9 0 1 1 0-3.8 1.9 1.9 0 1 1 0 3.8z" fill="#fff"/><path d="M14.36 7.415c0 .411-.334.745-.745.745s-.745-.334-.745-.745.334-.745.745-.745.745.333.745.745zM12.929 4.49h-2.453v1.209h2.453a2.37 2.37 0 0 1 2.372 2.372v4.859a2.37 2.37 0 0 1-2.372 2.372h-2.453v1.209h2.453c1.974 0 3.581-1.606 3.581-3.581V8.071c0-1.974-1.606-3.581-3.581-3.581zM10.5 7.391l-.024.001v1.209h.024a1.9 1.9 0 1 1 0 3.8c-.008 0-.016-.001-.024-.001v1.209h.024c1.714 0 3.109-1.395 3.109-3.109S12.214 7.391 10.5 7.391z" fill="#d1d1d1"/></svg>