<svg xmlns="http://www.w3.org/2000/svg" xmlns:xlink="http://www.w3.org/1999/xlink" width="52" height="52" fill="none" xmlns:v="https://vecta.io/nano"><path d="M26.283.002v51.996C40.512 51.847 52 40.265 52 26S40.512.153 26.283.002z" fill="#ffbb54"/><path d="M26.283.002L26 0C11.641 0 0 11.641 0 26s11.641 26 26 26l.282-.002C38.2 51.818 47.815 40.247 47.815 26S38.2.182 26.283.002z" fill="#ffd45a"/><path d="M36.306 22.882l-10.173 13h10.451c1.792-2.284 2.861-5.163 2.861-8.292v-1.569a3.15 3.15 0 0 0-3.139-3.139z" fill="#b74147"/><path d="M15.694 22.882a3.15 3.15 0 0 0-3.139 3.139v1.569c0 3.128 1.068 6.008 2.861 8.292l19.571-1.708c.84-1.946 1.319-4.192 1.319-6.584v-1.569l-20.612-3.139z" fill="#ff3c1f"/><path d="M34.987 34.175l-8.854 6.859a13.42 13.42 0 0 0 10.451-5.152c-.482-.614-1.017-1.187-1.598-1.708z" fill="#fa4087"/><path d="M34.987 34.175c-1.745 4.048-5.051 6.797-8.854 6.859-.044.001-.089.001-.133.001a13.42 13.42 0 0 1-10.584-5.153c2.462-3.137 6.287-5.153 10.584-5.153 3.455 0 6.605 1.304 8.987 3.445z" fill="#fa71a3"/><path d="M33.167 22.882l-1.569 4.708h3.139c.863 0 1.569-.706 1.569-1.569v-3.139h-3.139z" fill="#fff7df"/><path d="M33.167 22.882v3.139c0 .863-.706 1.569-1.569 1.569H17.264c-.863 0-1.569-.706-1.569-1.569v-3.139h17.473z" fill="#fff"/><path d="M26.785 44.959h-1.569c-.433 0-.785-.351-.785-.785s.351-.785.785-.785h1.569c.433 0 .785.351.785.785s-.351.785-.785.785z" fill="#ffbb54"/><g fill="#474867"><use xlink:href="#B"/><use xlink:href="#B" x="-17.472" y="0.001"/></g><defs ><path id="B" d="M34.736 11.896c-.863 0-1.569.706-1.569 1.569v4.708c0 .863.706 1.569 1.569 1.569s1.569-.706 1.569-1.569v-4.708c0-.863-.706-1.569-1.569-1.569z"/></defs></svg>