<svg xmlns="http://www.w3.org/2000/svg" width="21" height="21" fill="none" xmlns:v="https://vecta.io/nano"><g clip-path="url(#A)"><path d="M10.501 21c5.799 0 10.5-4.701 10.5-10.5S16.3 0 10.501 0 .001 4.701.001 10.5 4.702 21 10.501 21z" fill="#55acee"/><path d="M16.932 7.546a5.01 5.01 0 0 1-1.442.395c.518-.311.916-.802 1.104-1.388-.485.288-1.022.496-1.594.609-.458-.488-1.11-.792-1.832-.792a2.51 2.51 0 0 0-2.444 3.082C8.637 9.346 6.788 8.347 5.55 6.828a2.5 2.5 0 0 0-.34 1.262 2.51 2.51 0 0 0 1.116 2.089 2.49 2.49 0 0 1-1.137-.314v.032a2.51 2.51 0 0 0 2.013 2.461c-.21.058-.433.088-.661.088a2.51 2.51 0 0 1-.472-.045c.319.997 1.246 1.723 2.345 1.743-.859.673-1.941 1.074-3.117 1.074-.202 0-.402-.012-.598-.035a7.1 7.1 0 0 0 3.847 1.128c4.616 0 7.141-3.824 7.141-7.141a7.13 7.13 0 0 0-.007-.325 5.09 5.09 0 0 0 1.253-1.299z" fill="#f1f2f2"/></g><defs><clipPath id="A"><path fill="#fff" d="M0 0h21v21H0z"/></clipPath></defs></svg>