<svg xmlns="http://www.w3.org/2000/svg" width="21" height="21" fill="none" xmlns:v="https://vecta.io/nano"><path d="M10.5 21C16.299 21 21 16.299 21 10.5S16.299 0 10.5 0 0 4.701 0 10.5 4.701 21 10.5 21z" fill="#d22215"/><path d="M15.785 6.987l-.972.261c-2.333.495-5.444-.848-6.788 1.343-1.12 1.743-1.474 3.924-2.749 5.482l6.808 6.808a10.51 10.51 0 0 0 8.797-8.798l-5.096-5.096z" fill="#a81411"/><path d="M14.013 6.248H6.987c-1.378 0-2.496 1.117-2.496 2.496v3.512c0 1.378 1.117 2.496 2.496 2.496h7.026c1.378 0 2.496-1.117 2.496-2.496V8.744c0-1.378-1.117-2.496-2.496-2.496zm-1.688 4.423l-3.286 1.567c-.088.042-.189-.022-.189-.119V8.887c0-.098.104-.162.192-.118l3.286 1.665c.098.05.096.19-.003.237z" fill="#fff"/><path d="M14.013 6.248h-3.584v3.224l1.899.962c.098.049.096.19-.003.237l-1.896.904v3.177h3.584c1.379 0 2.496-1.117 2.496-2.496V8.744c0-1.378-1.117-2.496-2.496-2.496z" fill="#d1d1d1"/></svg>